<?xml version="1.0" encoding="utf-8"?>
<!-- Generator: Adobe Illustrator 16.0.4, SVG Export Plug-In . SVG Version: 6.00 Build 0)  -->
<!DOCTYPE svg PUBLIC "-//W3C//DTD SVG 1.1//EN" "http://www.w3.org/Graphics/SVG/1.1/DTD/svg11.dtd">
<svg version="1.1" id="Layer_1" xmlns="http://www.w3.org/2000/svg" xmlns:xlink="http://www.w3.org/1999/xlink" x="0px" y="0px"
	 width="108.982px" height="76.03px" viewBox="-12.864 -0.015 108.982 76.03" enable-background="new -12.864 -0.015 108.982 76.03"
	 xml:space="preserve">
<g>
	<path fill="#FFFFFF" d="M76.757,65.843L61.588,50.844c-1.211-1.227-3.177-1.227-4.389,0l-8.913-8.93l0.491-0.26
		c3.865-4.41,5.897-10.342,5.897-16.699c0-13.799-10.745-24.942-24.386-24.942S5.587,11.286,5.587,25.085
		c0,13.799,11.059,24.598,24.701,24.598c4.909,0,9.483-1.062,13.328-3.56c0.274,0,0.276,0.14,0.276,0.14l8.916,9.02
		c-1.213,1.226-1.213,3.213,0,4.439l14.826,15.344c1.213,1.227,3.178,1.227,4.391,0l4.729-4.783
		C77.971,69.057,77.971,67.068,76.757,65.843z M30.074,41.418c-9.072,0-16.427-7.396-16.427-16.574
		c0-9.177,7.354-16.617,16.427-16.617c9.073,0,16.456,7.439,16.456,16.617C46.529,34.021,39.146,41.418,30.074,41.418z"/>
</g>
</svg>
