<?xml version="1.0" encoding="utf-8"?>
<!-- Generator: Adobe Illustrator 16.0.4, SVG Export Plug-In . SVG Version: 6.00 Build 0)  -->
<!DOCTYPE svg PUBLIC "-//W3C//DTD SVG 1.1//EN" "http://www.w3.org/Graphics/SVG/1.1/DTD/svg11.dtd">
<svg version="1.1" id="Layer_1" xmlns="http://www.w3.org/2000/svg" xmlns:xlink="http://www.w3.org/1999/xlink" x="0px" y="0px"
	 width="108.982px" height="76.029px" viewBox="0 0 108.982 76.029" enable-background="new 0 0 108.982 76.029"
	 xml:space="preserve">
<g>
	<path fill="#FFFFFF" d="M54.493,5.533c-17.938,0-32.481,14.543-32.481,32.481c0,17.939,14.542,32.481,32.481,32.481
		c17.938,0,32.477-14.542,32.477-32.481C86.97,20.076,72.431,5.533,54.493,5.533z M58.75,52.948
		c-1.479,0.583-2.123,0.399-3.009,0.706c-0.881,0.305-1.906,0.462-3.074,0.462c-1.796,0-3.19-0.439-4.185-1.313
		c-0.997-0.876-2.076-1.986-2.076-3.333c0-0.062-0.145-2.606,0.694-4.345l2.572-6.018c0.165-0.626,0.305-1.222,0.417-1.783
		c0.112-0.559,0.167-0.624,0.167-1.087c0-0.837-0.531-1.422-0.875-1.75c-0.344-0.332-1.813-0.495-2.788-0.495
		c-0.48,0-0.972,0.076-1.476,0.225c-0.501,0.149-1.045,0.292-1.405,0.426l0.134-2.469c1.212-0.494,3.653-1.186,4.761-1.538
		c1.11-0.351,2.157-0.527,3.146-0.527c1.783,0,3.604,0.431,4.57,1.291c0.965,0.86,2.168,2.248,2.168,3.626
		c0,0.284-0.034,0.785-0.102,1.503c-0.067,0.72-0.192,1.377-0.371,1.977l-3.01,5.993c-0.15,0.525-0.285,1.122-0.407,1.799
		c-0.121,0.673-0.179,2.069-0.179,2.413c0,0.868,0.195,1.46,0.584,1.773c0.39,0.313,0.791,0.832,1.748,0.832
		c1.297,0,1.219,0.217,2.488-0.383L58.75,52.948z M58.716,25.988c-0.805,0.749-1.774,1.292-2.91,1.292
		c-1.135,0-2.108-0.542-2.922-1.292c-0.812-0.75-1.219-1.742-1.219-2.807c0-1.064,0.407-2.059,1.219-2.816
		c0.813-0.757,1.788-1.219,2.922-1.219c1.134,0,2.105,0.378,2.91,1.135c0.806,0.757,1.208,1.835,1.208,2.9
		C59.924,24.248,59.522,25.236,58.716,25.988z"/>
</g>
</svg>
