<?xml version="1.0" encoding="utf-8"?>
<!-- Generator: Adobe Illustrator 16.0.4, SVG Export Plug-In . SVG Version: 6.00 Build 0)  -->
<!DOCTYPE svg PUBLIC "-//W3C//DTD SVG 1.1//EN" "http://www.w3.org/Graphics/SVG/1.1/DTD/svg11.dtd">
<svg version="1.1" id="Layer_1" xmlns="http://www.w3.org/2000/svg" xmlns:xlink="http://www.w3.org/1999/xlink" x="0px" y="0px"
	 width="108.982px" height="76.03px" viewBox="-12.864 -0.015 108.982 76.03" enable-background="new -12.864 -0.015 108.982 76.03"
	 xml:space="preserve">
<g>
	<path fill="#FFFFFF" d="M27.415,64.085c5.13,2.983,11.1,4.704,17.479,4.714c19.145,0.029,34.688-15.347,34.719-34.347
		c0.027-19-15.469-34.427-34.615-34.456C25.854-0.033,10.31,15.347,10.282,34.348c-0.01,6.344,1.712,12.285,4.719,17.395
		c1.588,2.693-11.359,24.262-11.359,24.262S24.996,62.674,27.415,64.085z M38.222,56.083l0.021-14.615l-14.731-0.022l0.022-13.963
		l14.729,0.021l0.023-14.618l14.07,0.021l-0.021,14.619l14.73,0.023l-0.021,13.963l-14.73-0.021l-0.022,14.615L38.222,56.083z"/>
</g>

</svg>
