<?xml version="1.0" encoding="utf-8"?>
<!-- Generator: Adobe Illustrator 16.0.4, SVG Export Plug-In . SVG Version: 6.00 Build 0)  -->
<!DOCTYPE svg PUBLIC "-//W3C//DTD SVG 1.1//EN" "http://www.w3.org/Graphics/SVG/1.1/DTD/svg11.dtd">
<svg version="1.1" id="Layer_1" xmlns="http://www.w3.org/2000/svg" xmlns:xlink="http://www.w3.org/1999/xlink" x="0px" y="0px"
	 width="108.982px" height="76.029px" viewBox="0 0 108.982 76.029" enable-background="new 0 0 108.982 76.029"
	 xml:space="preserve">
<g>
	<path fill="#FFFFFF" d="M34.073,21.667h47.858c0,0,2.489-0.17,2.489-2.551c0,0,0.332-2.893-2.322-2.893l-36.74,0.169
		c0,0-2.988-0.34-2.988-2.721c0,0,0.505-2.893-2.655-2.893H17.92c0,0-2.49-0.51-2.49,2.723c0,3.232,0.166,0.851,0.166,0.851
		l5.366,47.977c0,2.554,2.331,2.921,2.331,2.921l5.469-38.138C28.762,27.112,27.932,21.667,34.073,21.667z"/>
	<path fill="#FFFFFF" d="M89.224,24.39c0,0-42.211,0.114-53.825,0.114c-1.587,0-3.152,2.381-3.152,2.381l-5.034,35.443
		c0,0-0.331,2.919,1.494,2.919l51.669-0.026c0,0,3.15,0.17,4.148-3.571l8.85-31.816C93.373,29.833,94.867,24.39,89.224,24.39z
		 M72.138,59.618H45.793c0,0-0.466-6.008,0.441-6.896c0.908-0.889,5.946-2.795,5.946-2.795s4.034-2.625,4.19-2.544
		c0.16,0.081,0.128-4.489,0.128-4.489s-2.755-0.73-2.714-3.846c0.039-3.114,0-5.751,0-5.751s0.185-3.868,3.776-4.07l3.201,1.105
		c3.592,0.202,3.738,2.963,3.738,2.963v5.782c0,0,0.179,2.224-2.595,3.815c0,0-0.197,3.977-0.04,3.896
		c0.157-0.08-0.373,2.409,4.44,3.136c2.16,0.73,4.318,1.568,5.724,2.968C72.935,53.783,72.138,59.618,72.138,59.618z"/>
</g>
</svg>
